# xmcd
#
# Track frame offsets:
#	150
#	13185
#	30758
#	54857
#	70394
#	93967
#	113610
#	133556
#	152969
#	180463
#	196667
#	214358
#	231614
#	250643
#	271918
#
# Disc length: 3791 seconds
#
# Revision: 4
# Processed by: cddbd v1.5.2PL0 Copyright (c) Steve Scherf et al.
# Submitted via: EasyCDDAExtractor 16.0.6.1
#
DISCID=c30ecd0f
DTITLE=Άνευ ερμηνευτού - Café de l' art-Ν. Μαυρουδής, Π. Μάργαρης 4
DYEAR=2003
DGENRE=Οργανική
TTITLE0=La vita e bella
TTITLE1=Struggle for pleasure
TTITLE2=Shape of myheart
TTITLE3=LA valse d' Amelie
TTITLE4=Canteen Rock
TTITLE5=Love Song of a vampire
TTITLE6=Titanic theme
TTITLE7=The chase
TTITLE8=If I were a rich man
TTITLE9=Romanza
TTITLE10=The sound of silence
TTITLE11=Boy on a Dolphin
TTITLE12=Tango
TTITLE13=Godfather theme
TTITLE14=Cavatina
EXTD=
EXTT0=
EXTT1=
EXTT2=
EXTT3=
EXTT4=
EXTT5=
EXTT6=
EXTT7=
EXTT8=
EXTT9=
EXTT10=
EXTT11=
EXTT12=
EXTT13=
EXTT14=
PLAYORDER=
